<!DOCTYPE svg PUBLIC "-//W3C//DTD SVG 1.1//EN" "http://www.w3.org/Graphics/SVG/1.1/DTD/svg11.dtd" [
	<!ENTITY ns_flows "http://ns.adobe.com/Flows/1.0/">
]><svg xmlns="http://www.w3.org/2000/svg" width="775" height="176" viewBox="-5.825 0 775 176" enable-background="new -5.825 0 775 176"><g fill="#fff"><path d="M0 0h33.752v112.264h62.536v31.158h-96.288v-143.422zM165.301 10.039h27.912l66.64 153.188h-38.079l-13.198-32.453h-59.5l-12.77 32.453h-37.213l66.208-153.188zm12.979 44.568l-18.604 47.606h37.431l-18.827-47.606zM270.232 128.826l59.5-53.446c6.061-5.622 13.636-12.118 13.636-21.42 0-10.385-8.874-16.66-18.828-16.66-11.9 0-19.041 8.44-19.904 19.472l-32.452-2.378c1.942-31.587 24.016-46.953 54.089-46.953 27.915 0 49.55 15.365 49.55 46.089 0 19.687-8.44 30.94-20.124 41.108l-46.522 40.03h67.945v28.559h-106.89v-34.401zM451.768 17.981c45.434 0 56.902 42.841 56.902 79.193 0 36.35-11.469 79.192-56.902 79.192-45.445 0-56.908-42.843-56.908-79.192-.001-36.352 11.462-79.193 56.908-79.193zm0 128.527c23.362 0 24.444-33.324 24.444-49.334 0-16.014-1.082-49.332-24.444-49.332-23.375 0-24.456 33.318-24.456 49.332 0 16.01 1.081 49.334 24.456 49.334zM627.667 43.616h-60.798l-.648 23.586c3.676-1.3 7.787-1.731 13.629-1.731 30.941 0 53.01 19.255 53.01 50.631 0 34.618-24.881 54.742-58.416 54.742-26.396 0-45.014-13.2-51.717-39.16l33.971-7.794c1.73 11.035 9.736 18.392 20.985 18.392 13.85 0 22.72-9.735 22.72-22.937 0-20.121-18.39-25.316-35.266-25.316-10.605 0-21.637 2.166-31.809 5.627l1.733-84.598h92.605v28.558zM707.936 2.423c45.438 0 56.906 42.838 56.906 79.19 0 36.349-11.468 79.193-56.906 79.193s-56.903-42.844-56.903-79.193c-.001-36.351 11.465-79.19 56.903-79.19zm0 128.522c23.367 0 24.452-33.318 24.452-49.332 0-16.012-1.085-49.333-24.452-49.333s-24.45 33.321-24.45 49.333c-.001 16.014 1.082 49.332 24.45 49.332z"/></g></svg>