<?xml version="1.0" encoding="UTF-8" standalone="no"?>
<svg width="765px" height="177px" viewBox="0 0 765 177" version="1.1" xmlns="http://www.w3.org/2000/svg" xmlns:xlink="http://www.w3.org/1999/xlink" xmlns:sketch="http://www.bohemiancoding.com/sketch/ns">
    <!-- Generator: Sketch 3.3.2 (12043) - http://www.bohemiancoding.com/sketch -->
    <title>Shape</title>
    <desc>Created with Sketch.</desc>
    <defs></defs>
    <g id="Page-1" stroke="none" stroke-width="1" fill="none" fill-rule="evenodd" sketch:type="MSPage">
        <path d="M0,0 L33.752,0 L33.752,112.264 L96.288,112.264 L96.288,143.422 L1.42108547e-14,143.422 L1.42108547e-14,0 L0,0 Z M165.301,10.039 L193.213,10.039 L259.853,163.227 L221.774,163.227 L208.576,130.774 L149.076,130.774 L136.306,163.227 L99.093,163.227 L165.301,10.039 L165.301,10.039 Z M178.28,54.607 L159.676,102.213 L197.107,102.213 L178.28,54.607 L178.28,54.607 Z M270.232,128.826 L329.732,75.38 C335.793,69.758 343.368,63.262 343.368,53.96 C343.368,43.575 334.494,37.3 324.54,37.3 C312.64,37.3 305.499,45.74 304.636,56.772 L272.184,54.394 C274.126,22.807 296.2,7.441 326.273,7.441 C354.188,7.441 375.823,22.806 375.823,53.53 C375.823,73.217 367.383,84.47 355.699,94.638 L309.177,134.668 L377.122,134.668 L377.122,163.227 L270.232,163.227 L270.232,128.826 L270.232,128.826 Z M451.768,17.981 C497.202,17.981 508.67,60.822 508.67,97.174 C508.67,133.524 497.201,176.366 451.768,176.366 C406.323,176.366 394.86,133.523 394.86,97.174 C394.859,60.822 406.322,17.981 451.768,17.981 L451.768,17.981 Z M451.768,146.508 C475.13,146.508 476.212,113.184 476.212,97.174 C476.212,81.16 475.13,47.842 451.768,47.842 C428.393,47.842 427.312,81.16 427.312,97.174 C427.312,113.184 428.393,146.508 451.768,146.508 L451.768,146.508 Z M627.667,43.616 L566.869,43.616 L566.221,67.202 C569.897,65.902 574.008,65.471 579.85,65.471 C610.791,65.471 632.86,84.726 632.86,116.102 C632.86,150.72 607.979,170.844 574.444,170.844 C548.048,170.844 529.43,157.644 522.727,131.684 L556.698,123.89 C558.428,134.925 566.434,142.282 577.683,142.282 C591.533,142.282 600.403,132.547 600.403,119.345 C600.403,99.224 582.013,94.029 565.137,94.029 C554.532,94.029 543.5,96.195 533.328,99.656 L535.061,15.058 L627.666,15.058 L627.666,43.616 L627.667,43.616 Z M707.936,2.423 C753.374,2.423 764.842,45.261 764.842,81.613 C764.842,117.962 753.374,160.806 707.936,160.806 C662.498,160.806 651.033,117.962 651.033,81.613 C651.032,45.262 662.498,2.423 707.936,2.423 L707.936,2.423 Z M707.936,130.945 C731.303,130.945 732.388,97.627 732.388,81.613 C732.388,65.601 731.303,32.28 707.936,32.28 C684.569,32.28 683.486,65.601 683.486,81.613 C683.485,97.627 684.568,130.945 707.936,130.945 L707.936,130.945 Z" id="Shape" fill="#FFFFFF" sketch:type="MSShapeGroup"></path>
    </g>
</svg>