<?xml version="1.0" encoding="UTF-8" standalone="no"?>
<svg width="129px" height="129px" viewBox="0 0 129 129" version="1.1" xmlns="http://www.w3.org/2000/svg" xmlns:xlink="http://www.w3.org/1999/xlink" xmlns:sketch="http://www.bohemiancoding.com/sketch/ns">
    <!-- Generator: Sketch 3.3.2 (12043) - http://www.bohemiancoding.com/sketch -->
    <title>Rectangle 5 + noun_60282_cc-2</title>
    <desc>Created with Sketch.</desc>
    <defs></defs>
    <g id="Page-1" stroke="none" stroke-width="1" fill="none" fill-rule="evenodd" sketch:type="MSPage">
        <g id="Rectangle-5-+-noun_60282_cc-2" sketch:type="MSLayerGroup">
            <rect id="Rectangle-5" fill="#F5F5F5" sketch:type="MSShapeGroup" x="0" y="0" width="129" height="129"></rect>
            <g id="noun_60282_cc-2" transform="translate(50.000000, 42.000000)" fill="#00B3BC" sketch:type="MSShapeGroup">
                <rect id="Rectangle-path" x="16" y="13" width="13" height="12"></rect>
                <rect id="Rectangle-path" x="-4.66487043e-16" y="13" width="13" height="12"></rect>
                <rect id="Rectangle-path" x="16" y="28" width="13" height="12"></rect>
                <rect id="Rectangle-path" x="-4.66487043e-16" y="28" width="13" height="12"></rect>
                <path d="M9.68504556,11 L21.3228129,11 C22.0420213,10.6749132 22.6722978,10.279356 23.2555999,9.82675125 C25.3698992,8.18579699 25.5933692,5.24113977 23.7554429,3.24867228 C21.9170605,1.25578532 18.7132313,0.969708936 16.598932,2.61024374 C15.6708476,3.33004884 14.8800377,4.17821078 14.2652673,5.33887554 C13.7955243,3.846832 13.0512326,2.72349979 12.1153952,1.73355805 C10.1766794,-0.316376395 6.86750003,-0.586932506 4.72355675,1.12868687 C2.5796135,2.84388678 2.41315119,5.89550802 4.35141091,7.94544247 C5.61059562,9.2772497 7.15983519,10.3389203 9.68504556,11 L9.68504556,11 L9.68504556,11 Z M17.9958471,4.78350143 C19.1405605,3.89549014 20.7737154,3.94121203 21.6452481,4.88543189 C22.5158688,5.82965174 22.2946792,7.31540329 21.1499658,8.20341458 C20.0052524,9.09100641 18.5973918,9.6375717 15.7415371,9.46559031 C16.0461859,6.87160737 16.8515898,5.67151275 17.9958471,4.78350143 L17.9958471,4.78350143 L17.9958471,4.78350143 Z M6.65771193,3.17442664 C7.67427213,2.36108045 9.34756033,2.6018544 10.397413,3.71134419 C11.4468096,4.82125347 12.1071861,6.18997376 12.0702452,8.89679327 C9.13138738,8.57086754 7.76776467,7.7642328 6.71836805,6.65474301 C5.66897144,5.54525322 5.64206383,3.98693392 6.65771193,3.17442664 L6.65771193,3.17442664 L6.65771193,3.17442664 Z" id="Shape"></path>
            </g>
        </g>
    </g>
</svg>